<!DOCTYPE svg PUBLIC "-//W3C//DTD SVG 1.1//EN" "http://www.w3.org/Graphics/SVG/1.1/DTD/svg11.dtd">
<!-- Uploaded to: SVG Repo, www.svgrepo.com, Transformed by: SVG Repo Mixer Tools -->
<svg width="64px" height="64px" viewBox="-8.4 -8.4 40.80 40.80" fill="none" xmlns="http://www.w3.org/2000/svg" stroke="#ffffff">
<g id="SVGRepo_bgCarrier" stroke-width="0">
<path transform="translate(-8.4, -8.4), scale(1.275)" d="M16,29.808192807767128C18.426549753653497,30.340186857438457,21.20177305661926,31.25020648606461,23.342039835144927,29.98908813611449C25.496827005346958,28.71941387501569,25.614766366667123,25.65582884305806,26.79199823382111,23.449178528866618C27.834503827955167,21.49506450848787,29.47603306069003,19.861287365884774,29.90441952385313,17.68830219414057C30.345737450231727,15.449722331077794,30.46618643363004,12.90577673759994,29.251290445192556,10.974448424564642C28.044795408157974,9.056475160402066,25.59160426143695,8.418007599639095,23.50996757581651,7.522998982076857C21.874455338480217,6.819803483719184,20.169563169517954,6.344302829619889,18.389732299448994,6.304474933154742C16.82000757834398,6.269348655303111,15.404677617847883,7.040350106729954,13.857367785874942,7.306999388228705C12.179573252867025,7.596135214476668,10.42246939952074,7.258907792707966,8.864716126985378,7.945929453877916C7.053830285859512,8.744591103764575,5.149943793121988,9.781010566571819,4.250438124726431,11.543978947772707C3.340934655493357,13.326542321398186,4.151890461606988,15.459184228768477,4.012711399508904,17.455520355329217C3.8404691267287974,19.926103692279195,1.9970881264320985,22.658172153842045,3.3300698849100723,24.745421314079586C4.647716028448233,26.808657205417333,7.899920498590928,26.1935815116986,10.173234546302997,27.101974016819725C12.191182501206981,27.90832490344894,13.87732620925377,29.34282018378938,16,29.808192807767128" fill="#03a5fb" strokewidth="0"/>
</g>
<g id="SVGRepo_tracerCarrier" stroke-linecap="round" stroke-linejoin="round"/>
<g id="SVGRepo_iconCarrier">
<path fill-rule="evenodd" clip-rule="evenodd" d="M2 14.803v6.447c0 .414.336.75.75.75h1.614a.75.75 0 0 0 .74-.627L5.5 19h13l.395 2.373a.75.75 0 0 0 .74.627h1.615a.75.75 0 0 0 .75-.75v-6.447a5.954 5.954 0 0 0-1-3.303l-.78-1.17a1.994 1.994 0 0 1-.178-.33h.994a.75.75 0 0 0 .671-.415l.25-.5A.75.75 0 0 0 21.287 8H19.6l-.31-1.546a2.5 2.5 0 0 0-1.885-1.944C15.943 4.17 14.141 4 12 4c-2.142 0-3.943.17-5.405.51a2.5 2.5 0 0 0-1.886 1.944L4.399 8H2.714a.75.75 0 0 0-.67 1.085l.25.5a.75.75 0 0 0 .67.415h.995a1.999 1.999 0 0 1-.178.33L3 11.5c-.652.978-1 2.127-1 3.303zm15.961-4.799a4 4 0 0 0 .34.997H5.699c.157-.315.271-.65.34-.997l.632-3.157a.5.5 0 0 1 .377-.39C8.346 6.157 10 6 12 6c2 0 3.654.156 4.952.458a.5.5 0 0 1 .378.389l.631 3.157zM5.5 16a1.5 1.5 0 1 0 0-3 1.5 1.5 0 0 0 0 3zM20 14.5a1.5 1.5 0 1 1-3 0 1.5 1.5 0 0 1 3 0z" fill="#ffffff"/>
</g>
</svg>